<svg width="236" height="64" viewBox="0 0 236 64" fill="none" xmlns="http://www.w3.org/2000/svg" role="img" aria-label="RéactifPub">
  <defs>
    <linearGradient id="reactifPink" x1="42" y1="8" x2="90" y2="56" gradientUnits="userSpaceOnUse">
      <stop offset="0" stop-color="#ff5aa8"/>
      <stop offset="0.5" stop-color="#f21b6d"/>
      <stop offset="1" stop-color="#9f73f1"/>
    </linearGradient>
    <filter id="softGlow" x="-30%" y="-30%" width="160%" height="160%" color-interpolation-filters="sRGB">
      <feGaussianBlur stdDeviation="2.4" result="blur"/>
      <feColorMatrix in="blur" type="matrix" values="0 0 0 0 1 0 0 0 0 0.16 0 0 0 0 0.48 0 0 0 0.65 0"/>
      <feMerge>
        <feMergeNode/>
        <feMergeNode in="SourceGraphic"/>
      </feMerge>
    </filter>
  </defs>

  <g filter="url(#softGlow)">
    <path d="M8 38.5C8 31.8726 13.3726 26.5 20 26.5H34.5C38.6421 26.5 42 23.1421 42 19C42 14.8579 45.3579 11.5 49.5 11.5H68" stroke="white" stroke-width="8" stroke-linecap="round" stroke-linejoin="round"/>
    <path d="M12 45.5H29.5C33.6421 45.5 37 42.1421 37 38C37 33.8579 40.3579 30.5 44.5 30.5H64" stroke="white" stroke-width="8" stroke-linecap="round" stroke-linejoin="round"/>
    <path d="M58 11.5H76C82.0751 11.5 87 16.4249 87 22.5C87 28.5751 82.0751 33.5 76 33.5H63" stroke="url(#reactifPink)" stroke-width="8" stroke-linecap="round"/>
  </g>

  <text x="100" y="35" fill="white" font-family="Arial Black, Arial, Helvetica, sans-serif" font-size="27" font-weight="900" letter-spacing="-1.4" transform="skewX(-8)">REACTIF</text>
  <text x="104" y="51" fill="#f262b5" font-family="Arial, Helvetica, sans-serif" font-size="9" font-weight="800" letter-spacing="3.4">PUB &amp; DESIGN</text>
</svg>
